<?xml version="1.0" standalone="no"?>
<!DOCTYPE svg PUBLIC "-//W3C//DTD SVG 20010904//EN"
 "http://www.w3.org/TR/2001/REC-SVG-20010904/DTD/svg10.dtd">
<svg version="1.0" xmlns="http://www.w3.org/2000/svg"
 width="1024.000000pt" height="1024.000000pt" viewBox="0 0 1024.000000 1024.000000"
 preserveAspectRatio="xMidYMid meet">
<metadata>
Created by potrace 1.11, written by Peter Selinger 2001-2013
</metadata>
<g transform="translate(0.000000,1024.000000) scale(0.100000,-0.100000)"
fill="#000000" stroke="none">
<path d="M4790 10164 c-19 -2 -87 -9 -150 -15 -797 -73 -1601 -354 -2279 -796
-480 -313 -938 -743 -1285 -1208 -547 -732 -870 -1549 -982 -2485 -25 -208
-30 -719 -10 -950 135 -1546 930 -2905 2206 -3772 731 -497 1576 -791 2470
-859 223 -17 717 -6 930 20 1166 144 2199 644 3005 1455 857 863 1369 1978
1465 3190 15 188 12 605 -5 799 -146 1655 -1067 3109 -2500 3946 -530 310
-1172 537 -1765 626 -270 40 -368 47 -715 50 -192 2 -366 1 -385 -1z m140
-697 l0 -324 -117 -7 c-128 -7 -343 -36 -493 -67 -164 -34 -412 -102 -417
-115 -3 -8 450 -1725 503 -1905 3 -11 -23 -27 -106 -63 -130 -57 -281 -145
-399 -234 l-84 -64 -569 569 c-312 312 -568 571 -568 574 0 11 205 177 322
260 62 45 188 126 280 181 92 54 169 102 171 106 2 4 -97 180 -220 392 -123
212 -238 409 -255 438 l-30 53 144 68 c559 268 1173 424 1806 459 l32 2 0
-323z m536 313 c464 -37 900 -135 1324 -297 139 -53 475 -204 491 -220 7 -7
-78 -160 -287 -520 l-24 -42 -113 54 c-131 62 -322 139 -457 185 -147 49 -414
120 -421 112 -3 -4 -120 -434 -259 -957 -140 -522 -256 -953 -259 -956 -3 -4
-31 -3 -61 1 -163 24 -337 23 -604 -3 -16 -2 -42 86 -221 753 -111 415 -205
764 -209 776 -6 18 -1 22 46 32 175 37 413 62 676 70 l217 7 3 508 c2 417 5
507 16 507 7 0 71 -5 142 -10z m-2682 -993 c86 -148 156 -272 156 -275 0 -4
-28 -25 -62 -47 -175 -112 -392 -290 -596 -489 l-143 -140 706 -706 707 -707
-64 -84 c-89 -118 -177 -269 -234 -399 -36 -83 -52 -109 -63 -105 -9 2 -356
95 -771 206 -415 111 -758 203 -762 205 -14 8 89 276 176 459 29 61 90 175
135 255 81 142 82 145 62 161 -11 9 -207 123 -435 254 -229 131 -416 243 -416
250 0 16 169 260 261 378 242 307 527 590 832 824 142 109 341 243 349 235 3
-4 77 -128 162 -275z m4957 202 c514 -353 932 -773 1267 -1276 l62 -92 -33
-19 c-110 -67 -519 -302 -525 -302 -4 0 -25 28 -47 62 -112 175 -290 392 -489
596 l-140 143 -706 -706 -707 -707 -84 64 c-118 89 -269 177 -399 234 -83 36
-109 52 -106 63 3 9 96 356 207 771 110 415 204 758 208 762 8 9 238 -76 393
-146 70 -32 202 -100 295 -152 163 -92 169 -94 184 -75 8 10 123 206 254 435
132 229 244 416 251 416 6 0 58 -32 115 -71z m136 -1476 c164 -197 268 -344
397 -560 53 -89 100 -164 104 -166 4 -3 196 105 427 240 231 134 428 249 438
254 16 9 26 -7 86 -133 255 -535 403 -1092 451 -1692 5 -71 10 -133 10 -137 0
-5 -146 -9 -323 -9 l-324 0 -7 113 c-7 130 -36 337 -66 488 -36 175 -103 421
-117 426 -7 3 -235 -54 -506 -127 -270 -73 -691 -185 -934 -250 -244 -65 -451
-121 -461 -124 -15 -5 -26 11 -65 101 -56 129 -149 287 -235 402 l-64 84 569
569 c312 312 571 568 574 568 3 0 24 -21 46 -47z m-6617 -383 c118 -68 229
-131 247 -142 l31 -19 -55 -116 c-67 -143 -139 -322 -186 -468 -56 -171 -117
-399 -109 -406 4 -4 433 -120 954 -259 521 -140 951 -256 956 -259 5 -3 6 -30
1 -61 -24 -166 -22 -334 4 -604 2 -20 84 3 -1108 -316 -231 -62 -425 -114
-431 -117 -13 -5 -16 11 -44 177 -28 173 -41 321 -48 554 l-7 211 -508 3 -508
2 6 88 c46 652 214 1275 496 1833 l30 60 32 -19 c18 -11 129 -75 247 -142z
m4009 -360 c46 -5 85 -11 88 -13 2 -2 -5 -34 -14 -70 -17 -63 -19 -66 -43 -60
-14 4 -95 7 -180 7 -85 0 -166 -3 -180 -7 -24 -6 -26 -3 -43 60 -9 36 -15 68
-13 70 7 8 138 20 221 22 44 0 118 -3 164 -9z m-744 -167 c9 -32 17 -62 19
-67 1 -5 -36 -28 -83 -52 -47 -23 -128 -69 -180 -103 l-94 -62 -48 47 c-27 27
-49 51 -49 54 0 22 373 239 412 240 4 0 14 -26 23 -57z m1313 12 c89 -42 312
-181 312 -195 0 -3 -22 -27 -49 -54 l-48 -47 -94 62 c-52 34 -133 80 -180 103
-47 24 -84 47 -83 52 27 96 36 124 41 124 3 0 49 -20 101 -45z m-1964 -513
l47 -49 -69 -107 c-39 -59 -85 -139 -103 -180 l-32 -72 -65 18 c-36 9 -67 20
-69 22 -16 15 213 416 237 416 3 0 27 -22 54 -48z m2620 -54 c68 -102 173
-304 163 -314 -6 -6 -107 -34 -123 -34 -7 0 -28 35 -49 78 -20 42 -66 121
-102 175 l-65 99 48 49 c27 27 51 49 54 49 3 0 37 -46 74 -102z m2196 -173 c0
-2 11 -68 24 -147 34 -196 47 -335 54 -582 l7 -211 508 -3 508 -2 -6 -83 c-49
-642 -180 -1155 -435 -1709 -38 -81 -74 -155 -82 -166 -12 -18 -24 -13 -238
110 -124 70 -248 142 -277 158 l-52 30 51 107 c63 135 132 302 170 413 50 145
138 464 130 471 -4 4 -436 122 -960 262 -524 140 -955 257 -957 259 -3 2 0 31
5 64 25 149 24 323 -3 598 -2 16 17 24 118 51 66 18 368 99 670 180 303 81
595 160 650 175 111 31 115 32 115 25z m-5118 -537 c44 -11 47 -13 41 -37 -9
-35 -9 -307 0 -351 l7 -36 -66 -17 c-36 -10 -68 -16 -71 -14 -12 12 -24 215
-19 309 9 151 14 171 40 164 12 -4 42 -12 68 -18z m3191 -6 c13 -67 18 -255 8
-346 -5 -54 -12 -100 -14 -102 -2 -2 -32 4 -68 14 l-64 17 5 70 c6 84 4 256
-4 305 l-6 36 58 16 c79 21 79 21 85 -10z m-5659 -514 c13 -222 61 -502 134
-773 l38 -140 29 1 c22 1 1756 460 1886 499 11 4 27 -21 62 -103 55 -127 153
-292 238 -404 l61 -81 -568 -568 c-313 -313 -572 -569 -575 -569 -9 0 -157
182 -247 305 -45 62 -125 184 -176 271 -52 88 -103 169 -113 181 l-18 22 -410
-240 c-225 -132 -423 -247 -438 -255 l-28 -15 -63 133 c-259 541 -408 1101
-456 1702 -5 71 -10 133 -10 137 0 5 146 9 323 9 l324 0 7 -112z m2755 -537
l62 -94 -47 -48 c-39 -40 -50 -46 -63 -36 -45 37 -244 388 -228 403 2 3 33 13
68 23 l64 18 41 -86 c23 -47 69 -128 103 -180z m2797 226 c17 -16 -181 -365
-229 -405 -10 -9 -24 -1 -61 37 l-48 49 69 105 c38 58 85 139 103 180 l34 75
63 -18 c35 -10 66 -20 69 -23z m1169 -308 c418 -112 761 -204 763 -205 7 -4
-103 -285 -162 -414 -34 -74 -101 -204 -150 -289 -73 -128 -86 -156 -74 -167
7 -7 202 -121 433 -253 231 -133 422 -246 423 -252 5 -13 -87 -150 -214 -319
-303 -403 -683 -764 -1105 -1050 l-118 -80 -54 92 c-171 291 -267 460 -267
466 0 4 26 24 58 44 172 111 396 295 598 490 l145 142 -707 707 -706 706 61
81 c85 112 180 272 236 402 37 83 53 109 64 106 9 -3 358 -96 776 -207z
m-3556 -331 c41 -28 120 -75 176 -103 l101 -52 -17 -63 c-10 -34 -20 -64 -22
-67 -14 -13 -250 114 -356 192 l-63 47 48 49 c26 27 50 49 53 49 3 0 38 -23
80 -52z m1835 3 l48 -49 -63 -47 c-106 -78 -342 -205 -356 -192 -2 3 -12 33
-22 67 l-17 63 102 52 c56 29 135 75 175 103 41 29 76 52 79 52 3 0 28 -22 54
-49z m-984 -265 c74 0 151 3 170 7 l36 7 17 -66 c10 -36 16 -68 13 -71 -15
-16 -245 -26 -352 -16 -63 6 -117 13 -120 15 -2 3 4 35 13 71 l18 67 35 -7
c19 -4 96 -7 170 -7z m-1221 -116 c111 -84 277 -182 403 -237 81 -35 107 -51
104 -62 -3 -9 -96 -356 -206 -771 -111 -415 -205 -758 -208 -762 -9 -9 -258
85 -419 159 -73 34 -201 100 -285 148 -149 86 -152 87 -168 67 -9 -11 -124
-207 -255 -436 -131 -229 -243 -416 -248 -416 -12 0 -90 51 -227 149 -446 318
-848 734 -1158 1198 l-62 92 92 54 c292 171 460 267 466 267 4 0 24 -26 44
-58 112 -173 298 -400 492 -599 l141 -144 705 705 c388 388 706 706 708 706 1
0 38 -27 81 -60z m3096 -511 l570 -570 -49 -42 c-173 -148 -383 -296 -599
-422 -64 -37 -121 -73 -126 -79 -5 -7 81 -164 231 -421 131 -225 246 -423 254
-438 l15 -28 -133 -63 c-558 -267 -1129 -416 -1765 -461 l-83 -5 0 323 0 324
103 6 c136 8 325 33 471 63 193 39 448 106 453 120 3 10 -456 1752 -502 1905
-4 11 21 27 103 62 128 56 295 154 401 236 42 33 78 60 81 60 3 1 262 -256
575 -570z m-2063 111 c129 -13 268 -12 408 4 63 7 118 10 121 7 3 -3 97 -348
209 -766 112 -418 205 -765 207 -771 5 -13 -11 -16 -177 -44 -173 -28 -321
-41 -554 -48 l-211 -7 -3 -508 -2 -508 -78 6 c-295 23 -429 41 -651 86 -275
55 -547 135 -796 234 -126 50 -434 190 -446 203 -4 4 51 108 122 232 71 124
143 248 159 277 l30 52 107 -50 c152 -72 320 -140 448 -182 163 -54 429 -127
436 -119 4 4 120 432 258 951 139 519 255 949 258 957 3 8 15 11 31 9 15 -3
71 -9 124 -15z"/>
</g>
</svg>
